<?xml version="1.0" encoding="utf-8"?>
<svg width="30" height="30" viewBox="0 0 30 30" fill="none" xmlns="http://www.w3.org/2000/svg">
<path d="M15 0.375C6.93586 0.375 0.375 6.93586 0.375 15C0.375 23.0641 6.93586 29.625 15 29.625C23.0641 29.625 29.625 23.0641 29.625 15C29.625 6.93586 23.0641 0.375 15 0.375ZM19.8727 7.13695C20.8806 7.13834 21.8655 7.4385 22.7028 7.99948C23.5402 8.56046 24.1925 9.35709 24.5773 10.2887C24.962 11.2203 25.062 12.245 24.8645 13.2334C24.667 14.2218 24.1809 15.1295 23.4677 15.8417C22.7545 16.5539 21.8462 17.0387 20.8575 17.2348C19.8689 17.4309 18.8443 17.3296 17.9132 16.9436C16.9822 16.5575 16.1864 15.9041 15.6266 15.066C15.0668 14.2278 14.768 13.2425 14.768 12.2346C14.7684 11.5647 14.9008 10.9015 15.1576 10.2827C15.4144 9.66402 15.7905 9.10193 16.2646 8.62857C16.7386 8.1552 17.3012 7.77984 17.9203 7.52391C18.5393 7.26798 19.2028 7.13649 19.8727 7.13695ZM8.96719 8.99039C9.79188 8.9915 10.5977 9.23707 11.2829 9.69605C11.9681 10.155 12.5018 10.8068 12.8166 11.5691C13.1314 12.3313 13.2132 13.1698 13.0517 13.9785C12.8901 14.7872 12.4924 15.5299 11.9089 16.1126C11.3253 16.6954 10.5821 17.092 9.7732 17.2525C8.96428 17.413 8.12593 17.3301 7.36412 17.0142C6.60231 16.6984 5.95123 16.1638 5.49317 15.478C5.03511 14.7922 4.79063 13.986 4.79063 13.1613C4.7909 12.6132 4.89916 12.0705 5.10922 11.5642C5.31928 11.0579 5.62702 10.598 6.01487 10.2107C6.40272 9.82333 6.86307 9.51621 7.36964 9.30683C7.8762 9.09746 8.41906 8.98993 8.96719 8.99039ZM3.63398 19.8888C5.35664 18.9544 7.56234 18.4868 8.96719 18.4868C10.0219 18.4868 11.3803 18.6977 12.717 19.204C11.8209 19.704 11.0133 20.348 10.3263 21.1102C9.39891 22.1648 8.86664 23.4248 8.86664 24.6841V25.7388C6.53785 24.4049 4.70245 22.3542 3.63398 19.8923V19.8888ZM15 27.375C13.5763 27.3762 12.1632 27.1304 10.8234 26.6487V24.7467C10.8234 21.049 16.8527 19.1857 19.8727 19.1857C21.4898 19.1857 23.9775 19.7222 25.9343 20.7895C24.8813 22.7765 23.3072 24.4392 21.3809 25.5994C19.4546 26.7596 17.2487 27.3734 15 27.375Z" fill="#30404C"/>
</svg>
